<svg width="250" height="250" viewBox="0 0 250 250" fill="none" xmlns="http://www.w3.org/2000/svg">
<g clip-path="url(#clip0)">
<path d="M226.847 251.015H228.347V249.515V106.497C228.347 102.52 226.767 98.7051 223.954 95.8926C221.142 93.0801 217.327 91.5 213.35 91.5H36.6505C32.673 91.5 28.8584 93.0801 26.0459 95.8926C23.2334 98.7051 21.6533 102.52 21.6533 106.497V249.515V251.015H23.1533H226.847Z" fill="url(#paint0_linear)" stroke="url(#paint1_linear)" stroke-width="3" stroke-miterlimit="10"/>
<path d="M36.6505 93H213.35C216.93 93 220.363 94.422 222.894 96.9532C225.425 99.4844 226.847 102.917 226.847 106.497V119.496H23.1533V106.497C23.1533 102.917 24.5753 99.4844 27.1065 96.9532C29.6378 94.422 33.0708 93 36.6505 93Z" fill="#E6E8E9"/>
<path d="M42.1647 109.643C44.0396 109.643 45.5596 108.123 45.5596 106.248C45.5596 104.373 44.0396 102.853 42.1647 102.853C40.2897 102.853 38.7698 104.373 38.7698 106.248C38.7698 108.123 40.2897 109.643 42.1647 109.643Z" fill="#C4C4C4"/>
<path d="M59.4786 109.643C61.3536 109.643 62.8735 108.123 62.8735 106.248C62.8735 104.373 61.3536 102.853 59.4786 102.853C57.6037 102.853 56.0837 104.373 56.0837 106.248C56.0837 108.123 57.6037 109.643 59.4786 109.643Z" fill="#C4C4C4"/>
<path d="M75.7743 109.643C77.6492 109.643 79.1692 108.123 79.1692 106.248C79.1692 104.373 77.6492 102.853 75.7743 102.853C73.8993 102.853 72.3794 104.373 72.3794 106.248C72.3794 108.123 73.8993 109.643 75.7743 109.643Z" fill="#C4C4C4"/>
<rect x="109" y="56" width="100" height="100" rx="25" fill="#16A1E0"/>
<rect x="132" y="176" width="40" height="40" rx="10" fill="#16A1E0"/>
<rect x="39" y="156" width="60" height="60" rx="10" fill="#16A1E0"/>
<path d="M173.583 89.3333C174.688 89.3333 175.748 89.7722 176.53 90.5536C177.311 91.335 177.75 92.3948 177.75 93.4999V118.5C177.75 119.605 177.311 120.665 176.53 121.446C175.748 122.228 174.688 122.667 173.583 122.667H144.417C143.312 122.667 142.252 122.228 141.47 121.446C140.689 120.665 140.25 119.605 140.25 118.5V93.4999C140.25 92.3948 140.689 91.335 141.47 90.5536C142.252 89.7722 143.312 89.3333 144.417 89.3333H173.583ZM173.583 118.5V97.6666H144.417V118.5H173.583Z" fill="white"/>
<path d="M69 174.75C63.475 174.75 59 176.987 59 179.75C59 182.512 63.475 184.75 69 184.75C74.525 184.75 79 182.512 79 179.75C79 176.987 74.525 174.75 69 174.75ZM59 182.25V186C59 188.762 63.475 191 69 191C74.525 191 79 188.762 79 186V182.25C79 185.012 74.525 187.25 69 187.25C63.475 187.25 59 185.012 59 182.25ZM59 188.5V192.25C59 195.013 63.475 197.25 69 197.25C74.525 197.25 79 195.013 79 192.25V188.5C79 191.263 74.525 193.5 69 193.5C63.475 193.5 59 191.263 59 188.5Z" fill="white"/>
<path d="M145 188H159C159.53 188 160.039 188.211 160.414 188.586C160.789 188.961 161 189.47 161 190V202C161 202.53 160.789 203.039 160.414 203.414C160.039 203.789 159.53 204 159 204H145C144.47 204 143.961 203.789 143.586 203.414C143.211 203.039 143 202.53 143 202V190C143 189.47 143.211 188.961 143.586 188.586C143.961 188.211 144.47 188 145 188ZM145 192V196H151V192H145ZM153 192V196H159V192H153ZM145 198V202H151V198H145ZM153 198V202H159V198H153Z" fill="white"/>
</g>
<defs>
<linearGradient id="paint0_linear" x1="125" y1="93" x2="125" y2="249.515" gradientUnits="userSpaceOnUse">
<stop stop-color="#F4F4F4"/>
<stop offset="1" stop-color="white"/>
</linearGradient>
<linearGradient id="paint1_linear" x1="125" y1="93" x2="125" y2="249.515" gradientUnits="userSpaceOnUse">
<stop stop-color="#C4C4C4"/>
<stop offset="1" stop-color="#F4F4F4"/>
</linearGradient>
<clipPath id="clip0">
<rect width="250" height="250" fill="white"/>
</clipPath>
</defs>
</svg>
