<svg width="250" height="250" viewBox="0 0 250 250" fill="none" xmlns="http://www.w3.org/2000/svg">
<g clip-path="url(#clip0)">
<path d="M220.694 251.015H222.194V249.515V106.497C222.194 102.52 220.614 98.7051 217.801 95.8926C214.989 93.0801 211.174 91.5 207.197 91.5H30.4972C26.5197 91.5 22.7051 93.0801 19.8926 95.8926C17.0801 98.7051 15.5 102.52 15.5 106.497V249.515V251.015H17H220.694Z" fill="url(#paint0_linear)" stroke="url(#paint1_linear)" stroke-width="3" stroke-miterlimit="10"/>
<path d="M30.4972 93H207.197C210.776 93 214.209 94.422 216.74 96.9532C219.272 99.4844 220.694 102.917 220.694 106.497V119.496H17V106.497C17 102.917 18.422 99.4844 20.9532 96.9532C23.4844 94.422 26.9175 93 30.4972 93Z" fill="#E6E8E9"/>
<path d="M36.0114 109.643C37.8863 109.643 39.4062 108.123 39.4062 106.248C39.4062 104.373 37.8863 102.853 36.0114 102.853C34.1364 102.853 32.6165 104.373 32.6165 106.248C32.6165 108.123 34.1364 109.643 36.0114 109.643Z" fill="#C4C4C4"/>
<path d="M53.3253 109.643C55.2003 109.643 56.7202 108.123 56.7202 106.248C56.7202 104.373 55.2003 102.853 53.3253 102.853C51.4504 102.853 49.9304 104.373 49.9304 106.248C49.9304 108.123 51.4504 109.643 53.3253 109.643Z" fill="#C4C4C4"/>
<path d="M69.621 109.643C71.4959 109.643 73.0159 108.123 73.0159 106.248C73.0159 104.373 71.4959 102.853 69.621 102.853C67.746 102.853 66.2261 104.373 66.2261 106.248C66.2261 108.123 67.746 109.643 69.621 109.643Z" fill="#C4C4C4"/>
<path d="M232.907 262.5H234.407V261V177.847C234.407 175.493 233.723 173.174 232.426 171.41C231.124 169.638 229.241 168.5 227.138 168.5H151.615C149.513 168.5 147.63 169.638 146.328 171.41C145.031 173.174 144.347 175.493 144.347 177.847V261V262.5H145.847H232.907Z" fill="url(#paint2_linear)" stroke="url(#paint3_linear)" stroke-width="3" stroke-miterlimit="10"/>
<path d="M159.635 170H218.725C218.725 175.439 214.316 179.848 208.877 179.848H169.483C164.044 179.848 159.635 175.439 159.635 170Z" fill="#E6E8E9"/>
<path d="M167.513 177.091C168.601 177.091 169.483 176.209 169.483 175.121C169.483 174.033 168.601 173.152 167.513 173.152C166.426 173.152 165.544 174.033 165.544 175.121C165.544 176.209 166.426 177.091 167.513 177.091Z" fill="#C4C4C4"/>
<rect x="173.422" y="173.939" width="39.3939" height="1.9697" rx="0.984848" fill="#C4C4C4"/>
<rect x="109" y="56" width="100" height="100" rx="25" fill="#16A1E0"/>
<rect x="39" y="156" width="60" height="60" rx="10" fill="#16A1E0"/>
<path d="M159 126.833V101.833H177.75V120.583C177.75 122.241 177.092 123.831 175.919 125.003C174.747 126.175 173.158 126.833 171.5 126.833H159ZM154.833 126.833H146.5C144.842 126.833 143.253 126.175 142.081 125.003C140.908 123.831 140.25 122.241 140.25 120.583V101.833H154.833V126.833ZM177.75 97.6667H140.25V91.4167C140.25 89.7591 140.908 88.1694 142.081 86.9973C143.253 85.8252 144.842 85.1667 146.5 85.1667H171.5C173.158 85.1667 174.747 85.8252 175.919 86.9973C177.092 88.1694 177.75 89.7591 177.75 91.4167V97.6667Z" fill="white"/>
<path d="M72.5568 176.08C73.2328 176.33 73.5799 177.086 73.3342 177.771L67.1098 195.131C66.8628 195.816 66.1179 196.169 65.4432 195.92C64.7672 195.67 64.4201 194.914 64.6658 194.229L70.8902 176.869C71.1372 176.184 71.8821 175.831 72.5568 176.08ZM59.1382 186.32L63.735 190.987C64.242 191.502 64.242 192.337 63.735 192.852C63.6178 192.974 63.4756 193.072 63.3175 193.138C63.1593 193.205 62.9885 193.239 62.8159 193.239C62.6433 193.239 62.4725 193.205 62.3143 193.138C62.1562 193.072 62.014 192.974 61.8968 192.852L56.3809 187.254C56.1362 187 56.0002 186.667 56.0002 186.321C56.0002 185.975 56.1362 185.641 56.3809 185.387L61.8968 179.787C62.014 179.666 62.1562 179.568 62.3143 179.502C62.4725 179.435 62.6433 179.401 62.8159 179.401C62.9885 179.401 63.1593 179.435 63.3175 179.502C63.4756 179.568 63.6178 179.666 63.735 179.787C64.242 180.304 64.242 181.14 63.735 181.655L59.1382 186.32ZM78.8618 186.32L74.265 181.655C74.0203 181.401 73.8843 181.068 73.8843 180.722C73.8843 180.376 74.0203 180.043 74.265 179.789C74.3822 179.667 74.5244 179.57 74.6825 179.503C74.8407 179.437 75.0115 179.402 75.1841 179.402C75.3567 179.402 75.5275 179.437 75.6857 179.503C75.8438 179.57 75.986 179.667 76.1032 179.789L81.6191 185.387C82.1261 185.902 82.1261 186.737 81.6191 187.254L76.1032 192.851C75.986 192.973 75.8438 193.07 75.6857 193.137C75.5275 193.203 75.3567 193.238 75.1841 193.238C75.0115 193.238 74.8407 193.203 74.6825 193.137C74.5244 193.07 74.3822 192.973 74.265 192.851C74.0207 192.598 73.8849 192.265 73.8849 191.919C73.8849 191.573 74.0207 191.24 74.265 190.986L78.8618 186.32Z" fill="white"/>
</g>
<defs>
<linearGradient id="paint0_linear" x1="118.847" y1="93" x2="118.847" y2="249.515" gradientUnits="userSpaceOnUse">
<stop stop-color="#F4F4F4"/>
<stop offset="1" stop-color="white"/>
</linearGradient>
<linearGradient id="paint1_linear" x1="118.847" y1="93" x2="118.847" y2="249.515" gradientUnits="userSpaceOnUse">
<stop stop-color="#C4C4C4"/>
<stop offset="1" stop-color="#F4F4F4"/>
</linearGradient>
<linearGradient id="paint2_linear" x1="189.377" y1="170" x2="189.377" y2="261" gradientUnits="userSpaceOnUse">
<stop stop-color="#F4F4F4"/>
<stop offset="1" stop-color="white"/>
</linearGradient>
<linearGradient id="paint3_linear" x1="189.377" y1="170" x2="189.377" y2="261" gradientUnits="userSpaceOnUse">
<stop stop-color="#C4C4C4"/>
<stop offset="1" stop-color="white"/>
</linearGradient>
<clipPath id="clip0">
<rect width="250" height="250" fill="white"/>
</clipPath>
</defs>
</svg>
