<svg width="250" height="250" viewBox="0 0 250 250" fill="none" xmlns="http://www.w3.org/2000/svg">
<g clip-path="url(#clip0)">
<path d="M226.847 251.015H228.347V249.515V106.497C228.347 102.52 226.767 98.7051 223.954 95.8926C221.142 93.0801 217.327 91.5 213.35 91.5H36.6505C32.673 91.5 28.8584 93.0801 26.0459 95.8926C23.2334 98.7051 21.6533 102.52 21.6533 106.497V249.515V251.015H23.1533H226.847Z" fill="url(#paint0_linear)" stroke="url(#paint1_linear)" stroke-width="3" stroke-miterlimit="10"/>
<path d="M36.6505 93H213.35C216.93 93 220.363 94.422 222.894 96.9532C225.425 99.4844 226.847 102.917 226.847 106.497V119.496H23.1533V106.497C23.1533 102.917 24.5753 99.4844 27.1065 96.9532C29.6378 94.422 33.0708 93 36.6505 93Z" fill="#E6E8E9"/>
<path d="M42.1647 109.643C44.0396 109.643 45.5596 108.123 45.5596 106.248C45.5596 104.373 44.0396 102.853 42.1647 102.853C40.2897 102.853 38.7698 104.373 38.7698 106.248C38.7698 108.123 40.2897 109.643 42.1647 109.643Z" fill="#C4C4C4"/>
<path d="M59.4786 109.643C61.3536 109.643 62.8735 108.123 62.8735 106.248C62.8735 104.373 61.3536 102.853 59.4786 102.853C57.6037 102.853 56.0837 104.373 56.0837 106.248C56.0837 108.123 57.6037 109.643 59.4786 109.643Z" fill="#C4C4C4"/>
<path d="M75.7743 109.643C77.6492 109.643 79.1692 108.123 79.1692 106.248C79.1692 104.373 77.6492 102.853 75.7743 102.853C73.8993 102.853 72.3794 104.373 72.3794 106.248C72.3794 108.123 73.8993 109.643 75.7743 109.643Z" fill="#C4C4C4"/>
<rect x="109" y="56" width="100" height="100" rx="25" fill="#16A1E0"/>
<rect x="132" y="176" width="40" height="40" rx="10" fill="#16A1E0"/>
<rect x="39" y="156" width="60" height="60" rx="10" fill="#16A1E0"/>
<path d="M161.1 117.789V121.895H169.5V126H148.5V121.895H156.9V117.789H140.083C139.808 117.788 139.535 117.733 139.281 117.628C139.027 117.523 138.796 117.371 138.603 117.179C138.409 116.987 138.256 116.759 138.153 116.509C138.05 116.259 137.998 115.992 138 115.722V89.067C138 87.9257 138.956 87 140.083 87H177.917C179.068 87 180 87.9216 180 89.067V115.722C180 116.864 179.045 117.789 177.917 117.789H161.1Z" fill="white"/>
<path d="M156 202.783C156 203.333 155.55 203.783 155 203.783H149C148.45 203.783 148 203.333 148 202.783C148 202.233 148.45 201.783 149 201.783H155C155.55 201.783 156 202.233 156 202.783ZM151 191.773V198.783C151 199.333 151.45 199.783 152 199.783C152.55 199.783 153 199.333 153 198.783V191.773H154.79C155.24 191.773 155.46 191.233 155.14 190.923L152.35 188.143C152.254 188.051 152.127 188 151.995 188C151.863 188 151.736 188.051 151.64 188.143L148.86 190.923C148.54 191.233 148.76 191.773 149.21 191.773H151Z" fill="white"/>
<path d="M79.1464 192.842C78.333 191.996 77.3824 191.306 76.3385 190.803C77.8107 189.565 78.7499 187.675 78.7499 185.555C78.7499 181.816 75.747 178.748 72.146 178.806C68.6003 178.863 65.7435 181.863 65.7435 185.555C65.7435 187.675 66.686 189.565 68.155 190.803C67.1108 191.306 66.1602 191.996 65.347 192.842C63.5725 194.688 62.565 197.125 62.5 199.723C62.4992 199.759 62.5053 199.795 62.5179 199.829C62.5306 199.862 62.5496 199.893 62.5739 199.919C62.5981 199.944 62.627 199.965 62.659 199.979C62.691 199.993 62.7253 200 62.76 200H64.58C64.7198 200 64.8368 199.885 64.84 199.74C64.9018 197.783 65.6655 195.95 67.0078 194.56C67.6946 193.843 68.5116 193.274 69.4114 192.887C70.3112 192.5 71.276 192.302 72.25 192.305C74.2292 192.305 76.0915 193.105 77.4922 194.56C78.8312 195.95 79.5949 197.783 79.6599 199.74C79.6632 199.885 79.7802 200 79.9199 200H81.7399C81.7746 200 81.809 199.993 81.8409 199.979C81.8729 199.965 81.9019 199.944 81.9261 199.919C81.9503 199.893 81.9693 199.862 81.982 199.829C81.9947 199.795 82.0008 199.759 81.9999 199.723C81.9349 197.125 80.9274 194.688 79.1464 192.842ZM72.25 189.875C71.1385 189.875 70.092 189.426 69.3087 188.61C68.9157 188.205 68.6052 187.722 68.3958 187.189C68.1864 186.657 68.0824 186.086 68.09 185.512C68.0998 184.405 68.5255 183.335 69.2697 182.542C70.0497 181.711 71.093 181.249 72.2077 181.236C73.3095 181.225 74.3787 181.671 75.1652 182.471C75.9712 183.291 76.4132 184.388 76.4132 185.555C76.4132 186.71 75.981 187.793 75.1945 188.61C74.8086 189.012 74.3497 189.331 73.8443 189.549C73.3389 189.766 72.797 189.877 72.25 189.875ZM64.1088 186.446C64.0795 186.153 64.0633 185.856 64.0633 185.555C64.0633 185.019 64.112 184.496 64.203 183.986C64.2258 183.865 64.164 183.74 64.0568 183.689C63.6148 183.483 63.2085 183.2 62.8575 182.842C62.4439 182.426 62.1185 181.924 61.9019 181.37C61.6854 180.815 61.5825 180.22 61.5998 179.622C61.629 178.539 62.0483 177.51 62.7795 176.733C63.5823 175.88 64.6613 175.414 65.8085 175.427C66.8453 175.437 67.8463 175.853 68.6035 176.588C68.8603 176.838 69.0813 177.115 69.2665 177.412C69.3315 177.516 69.4582 177.56 69.5687 177.52C70.1407 177.314 70.7452 177.169 71.366 177.101C71.548 177.081 71.652 176.879 71.5707 176.71C70.5145 174.54 68.3565 173.041 65.8605 173.001C62.2563 172.943 59.2533 176.011 59.2533 179.747C59.2533 181.867 60.1926 183.757 61.6648 184.995C60.6313 185.491 59.6791 186.176 58.8536 187.034C57.0726 188.88 56.0651 191.316 56.0001 193.918C55.9992 193.954 56.0053 193.99 56.018 194.024C56.0307 194.057 56.0497 194.088 56.0739 194.114C56.0981 194.14 56.1271 194.16 56.1591 194.174C56.191 194.188 56.2254 194.195 56.2601 194.195H58.0833C58.2231 194.195 58.3401 194.08 58.3433 193.935C58.4051 191.978 59.1688 190.145 60.5111 188.755C61.4665 187.763 62.6365 187.074 63.9138 186.74C64.0405 186.706 64.125 186.581 64.1088 186.446Z" fill="white"/>
</g>
<defs>
<linearGradient id="paint0_linear" x1="125" y1="93" x2="125" y2="249.515" gradientUnits="userSpaceOnUse">
<stop stop-color="#F4F4F4"/>
<stop offset="1" stop-color="white"/>
</linearGradient>
<linearGradient id="paint1_linear" x1="125" y1="93" x2="125" y2="249.515" gradientUnits="userSpaceOnUse">
<stop stop-color="#C4C4C4"/>
<stop offset="1" stop-color="#F4F4F4"/>
</linearGradient>
<clipPath id="clip0">
<rect width="250" height="250" fill="white"/>
</clipPath>
</defs>
</svg>
