<svg width="250" height="250" viewBox="0 0 250 250" fill="none" xmlns="http://www.w3.org/2000/svg">
<g clip-path="url(#clip0)">
<path d="M226.847 251.015H228.347V249.515V106.497C228.347 102.52 226.767 98.7051 223.954 95.8926C221.142 93.0801 217.327 91.5 213.35 91.5H36.6505C32.673 91.5 28.8584 93.0801 26.0459 95.8926C23.2334 98.7051 21.6533 102.52 21.6533 106.497V249.515V251.015H23.1533H226.847Z" fill="url(#paint0_linear)" stroke="url(#paint1_linear)" stroke-width="3" stroke-miterlimit="10"/>
<path d="M36.6505 93H213.35C216.93 93 220.363 94.422 222.894 96.9532C225.425 99.4844 226.847 102.917 226.847 106.497V119.496H23.1533V106.497C23.1533 102.917 24.5753 99.4844 27.1065 96.9532C29.6378 94.422 33.0708 93 36.6505 93Z" fill="#E6E8E9"/>
<path d="M42.1647 109.643C44.0396 109.643 45.5596 108.123 45.5596 106.248C45.5596 104.373 44.0396 102.853 42.1647 102.853C40.2897 102.853 38.7698 104.373 38.7698 106.248C38.7698 108.123 40.2897 109.643 42.1647 109.643Z" fill="#C4C4C4"/>
<path d="M59.4786 109.643C61.3536 109.643 62.8735 108.123 62.8735 106.248C62.8735 104.373 61.3536 102.853 59.4786 102.853C57.6037 102.853 56.0837 104.373 56.0837 106.248C56.0837 108.123 57.6037 109.643 59.4786 109.643Z" fill="#C4C4C4"/>
<path d="M75.7743 109.643C77.6492 109.643 79.1692 108.123 79.1692 106.248C79.1692 104.373 77.6492 102.853 75.7743 102.853C73.8993 102.853 72.3794 104.373 72.3794 106.248C72.3794 108.123 73.8993 109.643 75.7743 109.643Z" fill="#C4C4C4"/>
<rect x="109" y="56" width="100" height="100" rx="25" fill="#16A1E0"/>
<rect x="132" y="176" width="40" height="40" rx="10" fill="#16A1E0"/>
<rect x="39" y="156" width="60" height="60" rx="10" fill="#16A1E0"/>
<path d="M159 121.84C153.5 121.84 148.638 119.024 145.8 114.8C145.866 110.4 154.6 107.98 159 107.98C163.4 107.98 172.134 110.4 172.2 114.8C170.746 116.966 168.781 118.741 166.479 119.968C164.177 121.196 161.609 121.839 159 121.84ZM159 90.6C160.75 90.6 162.429 91.2954 163.667 92.5331C164.905 93.7708 165.6 95.4496 165.6 97.2C165.6 98.9504 164.905 100.629 163.667 101.867C162.429 103.105 160.75 103.8 159 103.8C157.25 103.8 155.571 103.105 154.333 101.867C153.095 100.629 152.4 98.9504 152.4 97.2C152.4 95.4496 153.095 93.7708 154.333 92.5331C155.571 91.2954 157.25 90.6 159 90.6ZM159 84C156.111 84 153.25 84.569 150.581 85.6747C147.912 86.7803 145.487 88.4008 143.444 90.4437C139.318 94.5695 137 100.165 137 106C137 111.835 139.318 117.431 143.444 121.556C145.487 123.599 147.912 125.22 150.581 126.325C153.25 127.431 156.111 128 159 128C164.835 128 170.431 125.682 174.556 121.556C178.682 117.431 181 111.835 181 106C181 93.834 171.1 84 159 84Z" fill="white"/>
<path d="M68.9999 176.021C66.7358 176.021 64.5224 176.692 62.6395 177.949C60.7566 179.207 59.2888 180.994 58.4213 183.086C57.5539 185.177 57.3259 187.479 57.7661 189.7C58.2063 191.921 59.295 193.961 60.8945 195.564C61.0785 195.754 61.1802 196.01 61.1778 196.275C61.1754 196.54 61.069 196.793 60.8816 196.98C60.6941 197.167 60.4406 197.274 60.1757 197.276C59.9107 197.278 59.6555 197.176 59.465 196.992C58.2146 195.742 57.2231 194.258 56.5473 192.625C55.8715 190.991 55.5248 189.241 55.5269 187.473C55.5269 180.032 61.5588 174 68.9999 174C76.4411 174 82.473 180.032 82.473 187.473C82.4751 189.241 82.1283 190.991 81.4525 192.625C80.7767 194.258 79.7852 195.742 78.5348 196.992C78.3443 197.176 78.0891 197.278 77.8242 197.276C77.5592 197.274 77.3057 197.167 77.1183 196.98C76.9309 196.793 76.8245 196.54 76.8221 196.275C76.8196 196.01 76.9214 195.754 77.1053 195.564C78.7049 193.961 79.7936 191.921 80.2338 189.7C80.674 187.479 80.446 185.177 79.5785 183.086C78.7111 180.994 77.2432 179.207 75.3603 177.949C73.4775 176.692 71.2641 176.021 68.9999 176.021Z" fill="white"/>
<path d="M68.9999 180.736C67.6673 180.736 66.3647 181.132 65.2568 181.872C64.1488 182.613 63.2854 183.665 62.7757 184.896C62.266 186.127 62.133 187.482 62.3933 188.789C62.6537 190.096 63.2959 191.296 64.2385 192.238C64.4227 192.429 64.5247 192.684 64.5225 192.949C64.5203 193.214 64.4142 193.467 64.2269 193.655C64.0396 193.842 63.7863 193.949 63.5213 193.951C63.2564 193.953 63.0011 193.852 62.8104 193.668C61.5848 192.443 60.7499 190.883 60.4113 189.184C60.0727 187.485 60.2457 185.724 60.9083 184.123C61.5708 182.522 62.6933 181.154 64.1337 180.191C65.574 179.229 67.2675 178.715 68.9999 178.715C70.7324 178.715 72.4259 179.229 73.8662 180.191C75.3065 181.154 76.429 182.522 77.0916 184.123C77.7542 185.724 77.9271 187.485 77.5885 189.184C77.25 190.883 76.4151 192.443 75.1895 193.668C74.9979 193.846 74.7445 193.943 74.4828 193.939C74.221 193.934 73.9712 193.828 73.7861 193.643C73.6009 193.458 73.4949 193.208 73.4903 192.946C73.4857 192.685 73.5828 192.431 73.7613 192.24C74.7045 191.298 75.347 190.097 75.6077 188.79C75.8683 187.483 75.7353 186.128 75.2256 184.896C74.7158 183.665 73.8522 182.612 72.744 181.872C71.6358 181.131 70.3328 180.736 68.9999 180.736Z" fill="white"/>
<path d="M68.9999 184.104C68.1065 184.104 67.2498 184.459 66.6181 185.091C65.9865 185.723 65.6316 186.579 65.6316 187.473C65.6316 188.366 65.9865 189.223 66.6181 189.854C67.2498 190.486 68.1065 190.841 68.9999 190.841C69.8932 190.841 70.7499 190.486 71.3816 189.854C72.0133 189.223 72.3681 188.366 72.3681 187.473C72.3681 186.579 72.0133 185.723 71.3816 185.091C70.7499 184.459 69.8932 184.104 68.9999 184.104ZM67.6526 187.473C67.6526 187.115 67.7945 186.773 68.0472 186.52C68.2998 186.267 68.6425 186.125 68.9999 186.125C69.3572 186.125 69.6999 186.267 69.9525 186.52C70.2052 186.773 70.3472 187.115 70.3472 187.473C70.3472 187.83 70.2052 188.173 69.9525 188.425C69.6999 188.678 69.3572 188.82 68.9999 188.82C68.6425 188.82 68.2998 188.678 68.0472 188.425C67.7945 188.173 67.6526 187.83 67.6526 187.473Z" fill="white"/>
<path d="M154.625 191.938C154.625 191.869 154.569 191.812 154.5 191.812H148.5C148.431 191.812 148.375 191.869 148.375 191.938V192.688C148.375 192.756 148.431 192.812 148.5 192.812H154.5C154.569 192.812 154.625 192.756 154.625 192.688V191.938ZM154.5 194.062H148.5C148.431 194.062 148.375 194.119 148.375 194.188V194.938C148.375 195.006 148.431 195.062 148.5 195.062H154.5C154.569 195.062 154.625 195.006 154.625 194.938V194.188C154.625 194.119 154.569 194.062 154.5 194.062ZM151.375 196.312H148.5C148.431 196.312 148.375 196.369 148.375 196.438V197.188C148.375 197.256 148.431 197.312 148.5 197.312H151.375C151.444 197.312 151.5 197.256 151.5 197.188V196.438C151.5 196.369 151.444 196.312 151.375 196.312ZM150.625 201.125H147.125V190.125H155.875V195.5C155.875 195.569 155.931 195.625 156 195.625H156.875C156.944 195.625 157 195.569 157 195.5V189.5C157 189.223 156.777 189 156.5 189H146.5C146.223 189 146 189.223 146 189.5V201.75C146 202.027 146.223 202.25 146.5 202.25H150.625C150.694 202.25 150.75 202.194 150.75 202.125V201.25C150.75 201.181 150.694 201.125 150.625 201.125ZM156.2 199.962C156.653 199.552 156.938 198.958 156.938 198.297C156.938 197.055 155.93 196.047 154.688 196.047C153.445 196.047 152.438 197.055 152.438 198.297C152.438 198.958 152.722 199.552 153.175 199.962C152.284 200.47 151.672 201.411 151.625 202.495C151.622 202.566 151.68 202.625 151.75 202.625H152.502C152.567 202.625 152.622 202.573 152.627 202.506C152.687 201.425 153.589 200.562 154.688 200.562C155.786 200.562 156.688 201.425 156.748 202.506C156.752 202.572 156.806 202.625 156.873 202.625H157.625C157.697 202.625 157.753 202.566 157.75 202.495C157.705 201.409 157.091 200.47 156.2 199.962ZM154.688 197.047C155.378 197.047 155.938 197.606 155.938 198.297C155.938 198.988 155.378 199.547 154.688 199.547C153.997 199.547 153.438 198.988 153.438 198.297C153.438 197.606 153.997 197.047 154.688 197.047Z" fill="white"/>
</g>
<defs>
<linearGradient id="paint0_linear" x1="125" y1="93" x2="125" y2="249.515" gradientUnits="userSpaceOnUse">
<stop stop-color="#F4F4F4"/>
<stop offset="1" stop-color="white"/>
</linearGradient>
<linearGradient id="paint1_linear" x1="125" y1="93" x2="125" y2="249.515" gradientUnits="userSpaceOnUse">
<stop stop-color="#C4C4C4"/>
<stop offset="1" stop-color="#F4F4F4"/>
</linearGradient>
<clipPath id="clip0">
<rect width="250" height="250" fill="white"/>
</clipPath>
</defs>
</svg>
