<svg width="250" height="250" viewBox="0 0 250 250" fill="none" xmlns="http://www.w3.org/2000/svg">
<g clip-path="url(#clip0)">
<path d="M194.203 251.5H195.703V250V106.539C195.703 102.675 194.579 98.9087 192.497 96.077C190.41 93.2377 187.463 91.5 184.251 91.5H53.9528C50.7402 91.5 47.7938 93.2377 45.7065 96.077C43.6249 98.9087 42.5 102.675 42.5 106.539V250V251.5H44H194.203Z" fill="url(#paint0_linear)" stroke="url(#paint1_linear)" stroke-width="3" stroke-miterlimit="10"/>
<path d="M67.7886 93H169.737V94.9913C169.737 103.276 163.021 109.991 154.737 109.991H82.7886C74.5043 109.991 67.7886 103.276 67.7886 94.9913V93Z" fill="#E6E8E9"/>
<path d="M81.3809 105.234C83.2577 105.234 84.7792 103.713 84.7792 101.836C84.7792 99.959 83.2577 98.4375 81.3809 98.4375C79.5041 98.4375 77.9827 99.959 77.9827 101.836C77.9827 103.713 79.5041 105.234 81.3809 105.234Z" fill="#C4C4C4"/>
<rect x="91.5754" y="99.7964" width="67.9654" height="3.39827" rx="1.69913" fill="#C4C4C4"/>
<rect x="125" y="56" width="100" height="100" rx="25" fill="#16A1E0"/>
<rect x="25" y="125" width="60" height="60" rx="10" fill="#16A1E0"/>
<rect x="106" y="176" width="40" height="40" rx="10" fill="#16A1E0"/>
<path d="M128.463 189.056C128.931 189.231 129.171 189.76 129.001 190.24L124.691 202.392C124.52 202.872 124.005 203.118 123.538 202.944C123.07 202.769 122.829 202.24 122.999 201.76L127.309 189.608C127.48 189.128 127.996 188.882 128.463 189.056ZM119.172 196.224L122.355 199.491C122.706 199.852 122.706 200.436 122.355 200.797C122.274 200.882 122.175 200.95 122.066 200.997C121.956 201.043 121.838 201.067 121.719 201.067C121.599 201.067 121.481 201.043 121.371 200.997C121.262 200.95 121.164 200.882 121.082 200.797L117.264 196.878C117.094 196.7 117 196.467 117 196.224C117 195.982 117.094 195.749 117.264 195.571L121.082 191.651C121.164 191.566 121.262 191.498 121.371 191.451C121.481 191.405 121.599 191.381 121.719 191.381C121.838 191.381 121.956 191.405 122.066 191.451C122.175 191.498 122.274 191.566 122.355 191.651C122.706 192.013 122.706 192.598 122.355 192.958L119.172 196.224ZM132.828 196.224L129.645 192.958C129.476 192.781 129.382 192.547 129.382 192.305C129.382 192.063 129.476 191.83 129.645 191.652C129.726 191.567 129.825 191.499 129.934 191.452C130.044 191.406 130.162 191.382 130.282 191.382C130.401 191.382 130.519 191.406 130.629 191.452C130.738 191.499 130.837 191.567 130.918 191.652L134.737 195.571C135.088 195.932 135.088 196.516 134.737 196.878L130.918 200.796C130.837 200.881 130.738 200.949 130.629 200.996C130.519 201.042 130.401 201.067 130.282 201.067C130.162 201.067 130.044 201.042 129.934 200.996C129.825 200.949 129.726 200.881 129.645 200.796C129.476 200.618 129.382 200.385 129.382 200.143C129.382 199.901 129.476 199.668 129.645 199.49L132.828 196.224Z" fill="white"/>
<path d="M189.583 89.3333C190.688 89.3333 191.748 89.7722 192.53 90.5536C193.311 91.335 193.75 92.3948 193.75 93.4999V118.5C193.75 119.605 193.311 120.665 192.53 121.446C191.748 122.228 190.688 122.667 189.583 122.667H160.417C159.312 122.667 158.252 122.228 157.47 121.446C156.689 120.665 156.25 119.605 156.25 118.5V93.4999C156.25 92.3948 156.689 91.335 157.47 90.5536C158.252 89.7722 159.312 89.3333 160.417 89.3333H189.583ZM189.583 118.5V97.6666H160.417V118.5H189.583Z" fill="white"/>
<path d="M68 151V148.333H65.4V145.667C65.4 144.959 65.1261 144.281 64.6385 143.781C64.1509 143.281 63.4896 143 62.8 143H44.6C43.9104 143 43.2491 143.281 42.7615 143.781C42.2739 144.281 42 144.959 42 145.667V164.333C42 165.041 42.2739 165.719 42.7615 166.219C43.2491 166.719 43.9104 167 44.6 167H62.8C63.4896 167 64.1509 166.719 64.6385 166.219C65.1261 165.719 65.4 165.041 65.4 164.333V161.667H68V159H65.4V156.333H68V153.667H65.4V151H68ZM62.8 164.333H44.6V145.667H62.8V164.333ZM47.2 156.333H53.7V161.667H47.2V156.333ZM55 148.333H60.2V152.333H55V148.333ZM47.2 148.333H53.7V155H47.2V148.333ZM55 153.667H60.2V161.667H55V153.667Z" fill="white"/>
</g>
<defs>
<linearGradient id="paint0_linear" x1="119.102" y1="93" x2="119.102" y2="250" gradientUnits="userSpaceOnUse">
<stop stop-color="#F4F4F4"/>
<stop offset="1" stop-color="white"/>
</linearGradient>
<linearGradient id="paint1_linear" x1="119.102" y1="93" x2="119.102" y2="250" gradientUnits="userSpaceOnUse">
<stop stop-color="#C4C4C4"/>
<stop offset="1" stop-color="#F4F4F4"/>
</linearGradient>
<clipPath id="clip0">
<rect width="250" height="250" fill="white"/>
</clipPath>
</defs>
</svg>
