<svg width="250" height="250" viewBox="0 0 250 250" fill="none" xmlns="http://www.w3.org/2000/svg">
<g clip-path="url(#clip0)">
<path d="M220.694 251.015H222.194V249.515V106.497C222.194 102.52 220.614 98.7051 217.801 95.8926C214.989 93.0801 211.174 91.5 207.197 91.5H30.4972C26.5197 91.5 22.7051 93.0801 19.8926 95.8926C17.0801 98.7051 15.5 102.52 15.5 106.497V249.515V251.015H17H220.694Z" fill="url(#paint0_linear)" stroke="url(#paint1_linear)" stroke-width="3" stroke-miterlimit="10"/>
<path d="M30.4972 93H207.197C210.776 93 214.209 94.422 216.74 96.9532C219.272 99.4844 220.694 102.917 220.694 106.497V119.496H17V106.497C17 102.917 18.422 99.4844 20.9532 96.9532C23.4844 94.422 26.9175 93 30.4972 93Z" fill="#E6E8E9"/>
<path d="M36.0114 109.643C37.8863 109.643 39.4062 108.123 39.4062 106.248C39.4062 104.373 37.8863 102.853 36.0114 102.853C34.1364 102.853 32.6165 104.373 32.6165 106.248C32.6165 108.123 34.1364 109.643 36.0114 109.643Z" fill="#C4C4C4"/>
<path d="M53.3253 109.643C55.2003 109.643 56.7202 108.123 56.7202 106.248C56.7202 104.373 55.2003 102.853 53.3253 102.853C51.4504 102.853 49.9304 104.373 49.9304 106.248C49.9304 108.123 51.4504 109.643 53.3253 109.643Z" fill="#C4C4C4"/>
<path d="M69.621 109.643C71.4959 109.643 73.0159 108.123 73.0159 106.248C73.0159 104.373 71.4959 102.853 69.621 102.853C67.746 102.853 66.2261 104.373 66.2261 106.248C66.2261 108.123 67.746 109.643 69.621 109.643Z" fill="#C4C4C4"/>
<path d="M232.907 262.5H234.407V261V177.847C234.407 175.493 233.723 173.174 232.426 171.41C231.124 169.638 229.241 168.5 227.138 168.5H151.615C149.513 168.5 147.63 169.638 146.328 171.41C145.031 173.174 144.347 175.493 144.347 177.847V261V262.5H145.847H232.907Z" fill="url(#paint2_linear)" stroke="url(#paint3_linear)" stroke-width="3" stroke-miterlimit="10"/>
<path d="M159.635 170H218.725C218.725 175.439 214.316 179.848 208.877 179.848H169.483C164.044 179.848 159.635 175.439 159.635 170Z" fill="#E6E8E9"/>
<path d="M167.513 177.091C168.601 177.091 169.483 176.209 169.483 175.121C169.483 174.033 168.601 173.151 167.513 173.151C166.426 173.151 165.544 174.033 165.544 175.121C165.544 176.209 166.426 177.091 167.513 177.091Z" fill="#C4C4C4"/>
<rect x="173.422" y="173.939" width="39.3939" height="1.9697" rx="0.984848" fill="#C4C4C4"/>
<rect x="109" y="56" width="100" height="100" rx="25" fill="#16A1E0"/>
<rect x="39" y="156" width="60" height="60" rx="10" fill="#16A1E0"/>
<path d="M148.143 89.7143V95.1429H142.714V89.7143H148.143ZM140 87V97.8571H150.857V87H140Z" fill="white"/>
<path d="M161.714 93.7856V99.2141H156.286V93.7856H161.714ZM153.572 91.0713V101.928H164.429V91.0713H153.572Z" fill="white"/>
<path d="M148.143 106V111.429H142.714V106H148.143ZM140 103.286V114.143H150.857V103.286H140Z" fill="white"/>
<path d="M167.143 97.8569V106H159V114.143H150.857V125H178V97.8569H167.143ZM161.714 108.714H167.143V114.143H161.714V108.714ZM159 122.286H153.571V116.857H159V122.286ZM167.143 122.286H161.714V116.857H167.143V122.286ZM175.286 122.286H169.857V116.857H175.286V122.286ZM175.286 114.143H169.857V108.714H175.286V114.143ZM169.857 106V100.571H175.286V106H169.857Z" fill="white"/>
<path d="M83.0079 194.821V193.189L84.7731 191.884C84.9335 191.721 85.094 191.558 84.9335 191.395L83.3288 188.621C83.3288 188.458 83.0079 188.458 82.8474 188.458L80.9218 189.274C80.4404 188.947 79.959 188.621 79.4776 188.458L79.1566 186.337C79.1566 186.174 78.9961 186.011 78.8357 186.011H75.6263C75.3053 186.011 75.1449 186.174 75.1449 186.337L74.8239 188.458C74.3425 188.784 74.0216 188.947 73.5402 189.274L71.6145 188.458C71.4541 188.458 71.2936 188.458 71.1331 188.621L69.5284 191.395C69.5284 191.558 69.5284 191.721 69.6889 191.884L71.4541 193.189V194.821L69.6889 196.126C69.5284 196.289 69.3679 196.453 69.5284 196.616L71.1331 199.389C71.2936 199.553 71.4541 199.553 71.6145 199.553L73.5402 198.737C73.8611 199.063 74.3425 199.389 74.8239 199.553L75.1449 201.674C75.3053 201.837 75.4658 202 75.6263 202H78.8357C78.9961 202 79.1566 201.837 79.1566 201.674L79.4776 199.553C79.959 199.226 80.2799 199.063 80.7613 198.737L82.687 199.389C82.8474 199.389 83.0079 199.389 83.1684 199.226L84.7731 196.453C84.9335 196.289 84.9335 196.126 84.7731 196.126L83.0079 194.821ZM77.0705 196.289C75.7867 196.289 74.6635 195.147 74.6635 193.842C74.6635 192.537 75.7867 191.395 77.0705 191.395C78.3543 191.395 79.4776 192.537 79.4776 193.842C79.4776 195.147 78.3543 196.289 77.0705 196.289ZM66.303 197.105H56.2094C55.3582 197.105 54.5419 196.761 53.94 196.15C53.3381 195.538 53 194.708 53 193.842V174.263C53 173.398 53.3381 172.568 53.94 171.956C54.5419 171.344 55.3582 171 56.2094 171H78.6752C79.5264 171 80.3427 171.344 80.9446 171.956C81.5465 172.568 81.8846 173.398 81.8846 174.263V183.531C80.8687 183.044 79.787 182.714 78.6752 182.552V177.526H56.2094V193.842H65.8376C65.8376 194.984 66.0141 196.077 66.303 197.105Z" fill="white"/>
</g>
<defs>
<linearGradient id="paint0_linear" x1="118.847" y1="93" x2="118.847" y2="249.515" gradientUnits="userSpaceOnUse">
<stop stop-color="#F4F4F4"/>
<stop offset="1" stop-color="white"/>
</linearGradient>
<linearGradient id="paint1_linear" x1="118.847" y1="93" x2="118.847" y2="249.515" gradientUnits="userSpaceOnUse">
<stop stop-color="#C4C4C4"/>
<stop offset="1" stop-color="#F4F4F4"/>
</linearGradient>
<linearGradient id="paint2_linear" x1="189.377" y1="170" x2="189.377" y2="261" gradientUnits="userSpaceOnUse">
<stop stop-color="#F4F4F4"/>
<stop offset="1" stop-color="white"/>
</linearGradient>
<linearGradient id="paint3_linear" x1="189.377" y1="170" x2="189.377" y2="261" gradientUnits="userSpaceOnUse">
<stop stop-color="#C4C4C4"/>
<stop offset="1" stop-color="white"/>
</linearGradient>
<clipPath id="clip0">
<rect width="250" height="250" fill="white"/>
</clipPath>
</defs>
</svg>
