<svg width="250" height="250" viewBox="0 0 250 250" fill="none" xmlns="http://www.w3.org/2000/svg">
<g clip-path="url(#clip0)">
<path d="M226.847 251.015H228.347V249.515V106.497C228.347 102.52 226.767 98.7051 223.954 95.8926C221.142 93.0801 217.327 91.5 213.35 91.5H36.6505C32.673 91.5 28.8584 93.0801 26.0459 95.8926C23.2334 98.7051 21.6533 102.52 21.6533 106.497V249.515V251.015H23.1533H226.847Z" fill="url(#paint0_linear)" stroke="url(#paint1_linear)" stroke-width="3" stroke-miterlimit="10"/>
<path d="M36.6505 93H213.35C216.93 93 220.363 94.422 222.894 96.9532C225.425 99.4844 226.847 102.917 226.847 106.497V119.496H23.1533V106.497C23.1533 102.917 24.5753 99.4844 27.1065 96.9532C29.6378 94.422 33.0708 93 36.6505 93Z" fill="#E6E8E9"/>
<path d="M42.1647 109.643C44.0396 109.643 45.5596 108.123 45.5596 106.248C45.5596 104.373 44.0396 102.853 42.1647 102.853C40.2897 102.853 38.7698 104.373 38.7698 106.248C38.7698 108.123 40.2897 109.643 42.1647 109.643Z" fill="#C4C4C4"/>
<path d="M59.4786 109.643C61.3536 109.643 62.8735 108.123 62.8735 106.248C62.8735 104.373 61.3536 102.853 59.4786 102.853C57.6037 102.853 56.0837 104.373 56.0837 106.248C56.0837 108.123 57.6037 109.643 59.4786 109.643Z" fill="#C4C4C4"/>
<path d="M75.7743 109.643C77.6492 109.643 79.1692 108.123 79.1692 106.248C79.1692 104.373 77.6492 102.853 75.7743 102.853C73.8993 102.853 72.3794 104.373 72.3794 106.248C72.3794 108.123 73.8993 109.643 75.7743 109.643Z" fill="#C4C4C4"/>
<rect x="109" y="56" width="100" height="100" rx="25" fill="#16A1E0"/>
<rect x="132" y="176" width="40" height="40" rx="10" fill="#16A1E0"/>
<rect x="39" y="156" width="60" height="60" rx="10" fill="#16A1E0"/>
<path d="M155.404 189.912V201.912C155.404 203.248 156.262 204 157.202 204C158.06 204 159 203.368 159 201.912V190C159 188.768 158.142 188 157.202 188C156.262 188 155.404 188.848 155.404 189.912ZM150.702 196V201.912C150.702 203.256 151.575 204 152.5 204C153.358 204 154.298 203.368 154.298 201.912V196.088C154.298 194.856 153.44 194.088 152.5 194.088C151.56 194.088 150.702 194.936 150.702 196ZM147.798 200.184C148.791 200.184 149.596 201.04 149.596 202.088C149.596 202.595 149.407 203.081 149.069 203.44C148.732 203.799 148.275 204 147.798 204C147.321 204 146.864 203.799 146.527 203.44C146.189 203.081 146 202.595 146 202.088C146 201.04 146.805 200.184 147.798 200.184Z" fill="white"/>
<path d="M137.517 96.6331L143.531 102.647C143.953 103.07 144.525 103.307 145.122 103.307C145.719 103.307 146.292 103.07 146.714 102.648C147.136 102.227 147.373 101.654 147.374 101.057C147.374 100.461 147.137 99.888 146.715 99.4658L144.249 96.9998H147.525C150.186 96.9998 152.767 97.9032 154.847 99.5619C156.928 101.221 158.383 103.537 158.975 106.13C158.317 108.669 156.834 110.918 154.759 112.523C152.685 114.128 150.137 114.999 147.514 115H144.134L146.715 112.419C147.137 111.997 147.374 111.424 147.374 110.828C147.373 110.231 147.136 109.658 146.714 109.236C146.292 108.815 145.719 108.578 145.122 108.578C144.525 108.578 143.953 108.815 143.531 109.238L137.168 115.601C136.826 115.943 136.603 116.386 136.534 116.865C136.46 117.298 136.514 117.742 136.688 118.145C136.863 118.548 137.151 118.891 137.517 119.133L143.531 125.147C143.953 125.57 144.525 125.807 145.122 125.807C145.719 125.807 146.292 125.57 146.714 125.148C147.136 124.727 147.373 124.154 147.374 123.557C147.374 122.961 147.137 122.388 146.715 121.966L144.249 119.5H147.514C150.253 119.5 152.948 118.812 155.352 117.499C157.755 116.186 159.791 114.29 161.27 111.985C162.738 114.288 164.763 116.185 167.158 117.498C169.554 118.812 172.241 119.5 174.973 119.5H179.25C179.847 119.5 180.419 119.263 180.841 118.841C181.263 118.419 181.5 117.847 181.5 117.25C181.5 116.653 181.263 116.081 180.841 115.659C180.419 115.237 179.847 115 179.25 115H174.973C172.36 115 169.823 114.129 167.761 112.525C165.699 110.921 164.23 108.676 163.588 106.144C164.196 103.542 165.667 101.223 167.76 99.563C169.854 97.903 172.447 96.9996 175.119 96.9998H179.25C179.847 96.9998 180.419 96.7628 180.841 96.3408C181.263 95.9189 181.5 95.3466 181.5 94.7498C181.5 94.1531 181.263 93.5808 180.841 93.1588C180.419 92.7369 179.847 92.4998 179.25 92.4998H175.119C172.359 92.4998 169.644 93.1986 167.227 94.5312C164.81 95.8638 162.77 97.7867 161.297 100.121C159.836 97.7873 157.805 95.8638 155.396 94.5308C152.987 93.1978 150.278 92.4989 147.525 92.4998H144.132L146.715 89.9191C146.924 89.71 147.09 89.4619 147.203 89.1888C147.316 88.9157 147.374 88.6231 147.374 88.3275C147.373 88.032 147.315 87.7394 147.202 87.4664C147.089 87.1934 146.923 86.9454 146.714 86.7365C146.505 86.5276 146.257 86.3619 145.984 86.2489C145.711 86.1359 145.418 86.0778 145.122 86.0779C144.827 86.078 144.534 86.1363 144.261 86.2495C143.988 86.3627 143.74 86.5285 143.531 86.7376L137.168 93.1006C136.826 93.4425 136.603 93.8861 136.534 94.3651C136.46 94.7978 136.514 95.2425 136.688 95.6452C136.863 96.0478 137.151 96.3911 137.517 96.6331Z" fill="white"/>
<path d="M67.15 181.875C67.15 184.158 65.341 186 63.1 186C60.859 186 59.05 184.158 59.05 181.875C59.05 179.593 60.859 177.75 63.1 177.75C65.341 177.75 67.15 179.593 67.15 181.875ZM71.2 197H55V194.25C55 191.211 58.6315 188.75 63.1 188.75C67.5685 188.75 71.2 191.211 71.2 194.25V197ZM82 186V188.75H69.85V186H82ZM82 180.5V183.25H69.85V180.5H82ZM82 175V177.75H69.85V175H82Z" fill="white"/>
</g>
<defs>
<linearGradient id="paint0_linear" x1="125" y1="93" x2="125" y2="249.515" gradientUnits="userSpaceOnUse">
<stop stop-color="#F4F4F4"/>
<stop offset="1" stop-color="white"/>
</linearGradient>
<linearGradient id="paint1_linear" x1="125" y1="93" x2="125" y2="249.515" gradientUnits="userSpaceOnUse">
<stop stop-color="#C4C4C4"/>
<stop offset="1" stop-color="#F4F4F4"/>
</linearGradient>
<clipPath id="clip0">
<rect width="250" height="250" fill="white"/>
</clipPath>
</defs>
</svg>
