<svg width="250" height="250" viewBox="0 0 250 250" fill="none" xmlns="http://www.w3.org/2000/svg">
<g clip-path="url(#clip0)">
<path d="M220.694 251.015H222.194V249.515V106.497C222.194 102.52 220.614 98.7051 217.801 95.8926C214.989 93.0801 211.174 91.5 207.197 91.5H30.4972C26.5197 91.5 22.7051 93.0801 19.8926 95.8926C17.0801 98.7051 15.5 102.52 15.5 106.497V249.515V251.015H17H220.694Z" fill="url(#paint0_linear)" stroke="url(#paint1_linear)" stroke-width="3" stroke-miterlimit="10"/>
<path d="M30.4972 93H207.197C210.776 93 214.209 94.422 216.74 96.9532C219.272 99.4844 220.694 102.917 220.694 106.497V119.496H17V106.497C17 102.917 18.422 99.4844 20.9532 96.9532C23.4844 94.422 26.9175 93 30.4972 93Z" fill="#E6E8E9"/>
<path d="M36.0114 109.643C37.8863 109.643 39.4062 108.123 39.4062 106.248C39.4062 104.373 37.8863 102.853 36.0114 102.853C34.1364 102.853 32.6165 104.373 32.6165 106.248C32.6165 108.123 34.1364 109.643 36.0114 109.643Z" fill="#C4C4C4"/>
<path d="M53.3253 109.643C55.2003 109.643 56.7202 108.123 56.7202 106.248C56.7202 104.373 55.2003 102.853 53.3253 102.853C51.4504 102.853 49.9304 104.373 49.9304 106.248C49.9304 108.123 51.4504 109.643 53.3253 109.643Z" fill="#C4C4C4"/>
<path d="M69.621 109.643C71.4959 109.643 73.0159 108.123 73.0159 106.248C73.0159 104.373 71.4959 102.853 69.621 102.853C67.746 102.853 66.2261 104.373 66.2261 106.248C66.2261 108.123 67.746 109.643 69.621 109.643Z" fill="#C4C4C4"/>
<path d="M232.907 262.5H234.407V261V177.847C234.407 175.493 233.723 173.174 232.426 171.41C231.124 169.638 229.241 168.5 227.138 168.5H151.615C149.513 168.5 147.63 169.638 146.328 171.41C145.031 173.174 144.347 175.493 144.347 177.847V261V262.5H145.847H232.907Z" fill="url(#paint2_linear)" stroke="url(#paint3_linear)" stroke-width="3" stroke-miterlimit="10"/>
<path d="M159.635 170H218.725C218.725 175.439 214.316 179.848 208.877 179.848H169.483C164.044 179.848 159.635 175.439 159.635 170Z" fill="#E6E8E9"/>
<path d="M167.513 177.091C168.601 177.091 169.483 176.209 169.483 175.121C169.483 174.033 168.601 173.151 167.513 173.151C166.426 173.151 165.544 174.033 165.544 175.121C165.544 176.209 166.426 177.091 167.513 177.091Z" fill="#C4C4C4"/>
<rect x="173.422" y="173.939" width="39.3939" height="1.9697" rx="0.984848" fill="#C4C4C4"/>
<rect x="109" y="56" width="100" height="100" rx="25" fill="#16A1E0"/>
<rect x="39" y="156" width="60" height="60" rx="10" fill="#16A1E0"/>
<path d="M69.568 174.109L83.0444 179.477C83.3253 179.589 83.5662 179.781 83.7364 180.03C83.9066 180.278 83.9983 180.571 84 180.872C84.0016 181.172 83.913 181.466 83.7456 181.716C83.5781 181.967 83.3393 182.162 83.0597 182.277L69.5832 187.815C69.2103 187.968 68.7913 187.968 68.4183 187.815L54.9403 182.278C54.6607 182.163 54.4219 181.968 54.2544 181.718C54.087 181.468 53.9984 181.174 54 180.873C54.0017 180.573 54.0934 180.28 54.2636 180.031C54.4338 179.783 54.6747 179.59 54.9556 179.478L68.432 174.109C68.7965 173.964 69.2035 173.964 69.568 174.109ZM78.3376 186.671L83.0444 188.547C83.3253 188.659 83.5662 188.851 83.7364 189.1C83.9066 189.348 83.9983 189.641 84 189.942C84.0016 190.242 83.913 190.536 83.7456 190.786C83.5781 191.036 83.3393 191.231 83.0597 191.346L69.5832 196.885C69.2103 197.038 68.7913 197.038 68.4183 196.885L54.9403 191.348C54.6607 191.233 54.4219 191.038 54.2544 190.788C54.087 190.538 53.9984 190.243 54 189.943C54.0017 189.643 54.0934 189.349 54.2636 189.101C54.4338 188.853 54.6747 188.66 54.9556 188.548L59.6624 186.674L67.5442 189.912C68.4764 190.295 69.5236 190.295 70.4558 189.912L78.3376 186.674V186.671Z" fill="white"/>
<path d="M134.12 80H182.88C183.442 80 183.981 80.2234 184.379 80.6209C184.777 81.0185 185 81.5577 185 82.12V130.88C185 131.442 184.777 131.981 184.379 132.379C183.981 132.777 183.442 133 182.88 133H134.12C133.558 133 133.019 132.777 132.621 132.379C132.223 131.981 132 131.442 132 130.88V82.12C132 81.5577 132.223 81.0185 132.621 80.6209C133.019 80.2234 133.558 80 134.12 80V80Z" fill="white"/>
<path d="M137.3 90.6001H179.7V127.7H137.3V90.6001Z" fill="#F4F4F4"/>
<path d="M138.89 83.71C139.311 83.71 139.716 83.8775 140.014 84.1757C140.312 84.4738 140.48 84.8783 140.48 85.3C140.48 85.7217 140.312 86.1261 140.014 86.4243C139.716 86.7224 139.311 86.89 138.89 86.89C138.468 86.89 138.064 86.7224 137.766 86.4243C137.467 86.1261 137.3 85.7217 137.3 85.3C137.3 84.8783 137.467 84.4738 137.766 84.1757C138.064 83.8775 138.468 83.71 138.89 83.71Z" fill="#16A1E0"/>
<path d="M144.19 83.71C144.612 83.71 145.016 83.8775 145.314 84.1757C145.613 84.4738 145.78 84.8783 145.78 85.3C145.78 85.7217 145.613 86.1261 145.314 86.4243C145.016 86.7224 144.612 86.89 144.19 86.89C143.768 86.89 143.364 86.7224 143.066 86.4243C142.768 86.1261 142.6 85.7217 142.6 85.3C142.6 84.8783 142.768 84.4738 143.066 84.1757C143.364 83.8775 143.768 83.71 144.19 83.71Z" fill="#16A1E0"/>
<path d="M149.49 83.71C149.912 83.71 150.316 83.8775 150.614 84.1757C150.912 84.4738 151.08 84.8783 151.08 85.3C151.08 85.7217 150.912 86.1261 150.614 86.4243C150.316 86.7224 149.912 86.89 149.49 86.89C149.068 86.89 148.664 86.7224 148.366 86.4243C148.067 86.1261 147.9 85.7217 147.9 85.3C147.9 84.8783 148.067 84.4738 148.366 84.1757C148.664 83.8775 149.068 83.71 149.49 83.71Z" fill="#16A1E0"/>
<path d="M155.85 83.71H179.7V86.89H155.85V83.71Z" fill="white"/>
<path d="M142.6 103.85V106.5H155.85V103.85H142.6ZM142.6 111.8H155.85V109.15H142.6V111.8ZM142.6 117.1H155.85V114.45H142.6V117.1ZM142.6 122.4H155.85V119.75H142.6V122.4Z" fill="#16A1E0"/>
<path d="M142.6 95.8999H174.4V101.2H142.6V95.8999Z" fill="#16A1E0"/>
<path d="M158.5 103.85V111.8H174.4V103.85H158.5ZM158.5 122.4H174.4V114.45H158.5V122.4Z" fill="#16A1E0"/>
</g>
<defs>
<linearGradient id="paint0_linear" x1="118.847" y1="93" x2="118.847" y2="249.515" gradientUnits="userSpaceOnUse">
<stop stop-color="#F4F4F4"/>
<stop offset="1" stop-color="white"/>
</linearGradient>
<linearGradient id="paint1_linear" x1="118.847" y1="93" x2="118.847" y2="249.515" gradientUnits="userSpaceOnUse">
<stop stop-color="#C4C4C4"/>
<stop offset="1" stop-color="#F4F4F4"/>
</linearGradient>
<linearGradient id="paint2_linear" x1="189.377" y1="170" x2="189.377" y2="261" gradientUnits="userSpaceOnUse">
<stop stop-color="#F4F4F4"/>
<stop offset="1" stop-color="white"/>
</linearGradient>
<linearGradient id="paint3_linear" x1="189.377" y1="170" x2="189.377" y2="261" gradientUnits="userSpaceOnUse">
<stop stop-color="#C4C4C4"/>
<stop offset="1" stop-color="white"/>
</linearGradient>
<clipPath id="clip0">
<rect width="250" height="250" fill="white"/>
</clipPath>
</defs>
</svg>
